<svg width="50" height="50" viewBox="0 0 50 50" fill="none" xmlns="http://www.w3.org/2000/svg">
<g clip-path="url(#clip0_8_2)">
<path d="M23.0176 0.0195501C26.4648 -0.0976374 29.3652 2.59768 29.4824 6.04494L29.4922 6.36721L29.6777 5.56643C30.4199 2.19728 33.7598 0.0683783 37.1289 0.810566C40.498 1.55275 42.627 4.90236 41.875 8.2715L38.1348 25.166C38.418 25.3906 38.6914 25.625 38.9648 25.8594L40.9473 27.6563C42.7246 29.2871 43.75 31.5918 43.75 34.0137V35.0098C43.75 40.293 40.9473 45.1758 36.3867 47.8321L36.1328 47.9785C33.8672 49.3067 31.2793 50 28.6523 50H16.4063C9.93164 50 4.6875 44.7559 4.6875 38.2813V37.5L4.6875 28.125C4.6875 24.6778 7.49023 21.875 10.9375 21.875C11.2109 21.875 11.4844 21.8946 11.748 21.9238C12.8223 20.0293 14.8535 18.75 17.1875 18.75C17.2656 18.75 17.3437 18.75 17.4219 18.75L16.9922 6.48439C16.875 3.03713 19.5703 0.136738 23.0176 0.0195501ZM24.7949 6.21096C24.7656 5.35158 24.043 4.67775 23.1836 4.70705C22.3242 4.73635 21.6504 5.459 21.6797 6.31838L22.2266 22.0899C22.2559 23.0469 21.709 23.916 20.8398 24.3067C19.9707 24.6973 18.9551 24.5215 18.2617 23.8672C17.9785 23.5938 17.6074 23.4375 17.1875 23.4375C16.3281 23.4375 15.625 24.1406 15.625 25C15.625 25.8887 15.127 26.6992 14.3262 27.0996C13.5254 27.5 12.5781 27.4121 11.875 26.875C11.6113 26.6797 11.2891 26.5625 10.9375 26.5625C10.0781 26.5625 9.375 27.2656 9.375 28.125L9.375 37.5V38.2813C9.375 42.168 12.5195 45.3125 16.4063 45.3125H28.6523C30.4492 45.3125 32.2168 44.834 33.7695 43.9258L34.0234 43.7793C37.1484 41.9629 39.0625 38.6231 39.0625 35.0098V34.0137C39.0625 32.9102 38.5938 31.8653 37.7832 31.1231L35.8008 29.3262C35.7422 29.2676 35.6738 29.2188 35.6152 29.1602L34.3262 34.7266C34.1309 35.5664 33.291 36.0938 32.4512 35.8985C31.6113 35.7031 31.084 34.8633 31.2793 34.0235L33.2031 25.6641L37.3047 7.25588C37.4902 6.41603 36.9629 5.57619 36.1133 5.39064C35.2637 5.2051 34.4336 5.73244 34.248 6.58205L30.1855 24.8926C29.9609 25.8887 29.1211 26.6309 28.0957 26.7188L27.998 26.7285C27.3535 26.7871 26.7188 26.5821 26.2305 26.1621C25.7422 25.7422 25.459 25.127 25.4297 24.4824L24.7949 6.21096Z" fill="black"/>
</g>
<defs>
<clipPath id="clip0_8_2">
<rect width="50" height="50" transform="matrix(0 1 -1 0 50 0)"/>
</clipPath>
</defs>
</svg>
